<svg height="256px" width="256px" version="1.1" id="Layer_1" xmlns="http://www.w3.org/2000/svg" xmlns:xlink="http://www.w3.org/1999/xlink" viewBox="-51.2 -51.2 614.40 614.40" xml:space="preserve" fill="#000000" stroke="#000000" stroke-width="2.048008" transform="matrix(1, 0, 0, 1, 0, 0)"><g id="SVGRepo_bgCarrier" stroke-width="0"><rect x="-51.2" y="-51.2" width="614.40" height="614.40" rx="92.16" fill="#f5a38f" strokewidth="0"></rect></g><g id="SVGRepo_iconCarrier"> <g> <path style="fill:#556080;" d="M503.172,512.001c-2.26,0-4.52-0.865-6.241-2.586l-88.276-88.276c-3.452-3.452-3.452-9.031,0-12.482 c3.452-3.452,9.031-3.452,12.482,0l88.276,88.276c3.452,3.452,3.452,9.031,0,12.482 C507.692,511.136,505.432,512.001,503.172,512.001"></path> <g> <path style="fill:#F29C1F;" d="M70.513,150.07c-2.26,0-4.529-0.865-6.25-2.586c-3.443-3.46-3.434-9.048,0.009-12.491l53.08-52.966 c3.452-3.443,9.048-3.443,12.482,0.009c3.443,3.46,3.434,9.048-0.009,12.491l-53.071,52.966 C75.024,149.214,72.764,150.07,70.513,150.07"></path> <path style="fill:#F29C1F;" d="M273.754,159.01c-1.845,0-3.699-0.574-5.297-1.766l-70.833-53.186 c-3.893-2.931-4.687-8.466-1.757-12.359c2.931-3.902,8.457-4.687,12.359-1.766l70.841,53.186 c3.893,2.931,4.679,8.466,1.757,12.367C279.086,157.792,276.438,159.01,273.754,159.01"></path> <path style="fill:#F29C1F;" d="M335.453,167.725c-2.401,0-4.793-0.971-6.532-2.887c-3.284-3.61-3.019-9.198,0.591-12.473 l97.103-88.276c3.61-3.284,9.19-3.01,12.465,0.591c3.284,3.61,3.019,9.198-0.591,12.473l-97.103,88.276 C339.69,166.966,337.571,167.725,335.453,167.725"></path> </g> <path style="fill:#84B5CB;" d="M450.207,353.105c0,48.755-39.521,88.276-88.276,88.276s-88.276-39.521-88.276-88.276 s39.521-88.276,88.276-88.276S450.207,304.35,450.207,353.105"></path> <g> <path style="fill:#F0C419;" d="M88.276,176.445c0,24.373-19.765,44.138-44.138,44.138S0,200.818,0,176.445 c0-24.382,19.765-44.138,44.138-44.138S88.276,152.063,88.276,176.445"></path> <path style="fill:#F0C419;" d="M211.862,70.622c0,24.373-19.765,44.138-44.138,44.138s-44.138-19.765-44.138-44.138 s19.765-44.138,44.138-44.138S211.862,46.249,211.862,70.622"></path> <path style="fill:#F0C419;" d="M512,44.139c0,24.373-19.765,44.138-44.138,44.138s-44.138-19.765-44.138-44.138 s19.765-44.138,44.138-44.138S512,19.766,512,44.139"></path> <path style="fill:#F0C419;" d="M344.276,185.38c0,24.373-19.765,44.138-44.138,44.138c-24.373,0-44.138-19.765-44.138-44.138 s19.765-44.138,44.138-44.138C324.511,141.242,344.276,161.007,344.276,185.38"></path> </g> </g> </g></svg>